<?xml version="1.0" standalone="no"?>
<!DOCTYPE svg PUBLIC "-//W3C//DTD SVG 20010904//EN"
 "http://www.w3.org/TR/2001/REC-SVG-20010904/DTD/svg10.dtd">
<svg version="1.0" xmlns="http://www.w3.org/2000/svg"
 width="390.000000pt" height="260.000000pt" viewBox="0 0 390.000000 260.000000"
 preserveAspectRatio="xMidYMid meet">

<g transform="translate(0.000000,260.000000) scale(0.100000,-0.100000)"
fill="#000000" stroke="none">
<path d="M2823 2058 c-23 -12 -44 -27 -47 -34 -8 -21 43 -111 84 -148 87 -78
207 -115 314 -95 108 19 203 82 252 165 36 61 29 84 -29 112 l-48 23 -48 -50
c-105 -107 -267 -108 -372 0 -26 27 -51 49 -56 48 -4 0 -27 -10 -50 -21z"/>
<path d="M1902 1629 c-152 -14 -272 -44 -272 -68 0 -22 49 -179 58 -185 4 -2
57 6 117 20 142 31 270 34 323 7 46 -24 82 -75 84 -119 0 -19 1 -38 2 -44 1
-6 -67 -11 -169 -13 -230 -6 -330 -34 -414 -118 -49 -49 -71 -112 -71 -199 0
-125 78 -235 199 -281 121 -46 317 -33 457 31 l63 28 92 -40 c69 -30 96 -38
108 -31 14 9 16 50 19 319 1 180 -2 337 -8 377 -11 75 -44 148 -89 200 -83 93
-270 137 -499 116z m313 -684 l0 -130 -65 -22 c-81 -28 -181 -30 -230 -5 -98
49 -108 180 -18 243 48 35 113 48 218 46 l95 -2 0 -130z"/>
<path d="M265 1608 c-3 -7 -4 -229 -3 -493 l3 -480 135 0 135 0 3 323 c1 177
5 322 8 322 3 0 15 -11 26 -25 10 -13 77 -94 147 -179 l128 -155 149 181 149
181 5 -324 5 -324 138 -3 137 -3 -2 493 -3 493 -116 3 -116 3 -168 -203 c-92
-112 -172 -203 -178 -203 -6 0 -86 91 -177 202 l-165 202 -118 0 c-85 1 -119
-2 -122 -11z"/>
<path d="M2634 1606 c-3 -8 -4 -182 -2 -388 5 -416 6 -427 75 -507 63 -75 163
-111 306 -111 109 0 223 22 304 60 l63 29 92 -41 c68 -30 96 -38 107 -31 14 9
16 66 16 504 l0 494 -135 0 -135 0 -3 -397 -2 -397 -22 -12 c-78 -42 -209 -50
-275 -18 -97 47 -105 84 -112 494 l-6 330 -133 3 c-108 2 -133 0 -138 -12z"/>
</g>
</svg>
